<?xml version="1.0" encoding="utf-8"?>
<!-- Generator: Adobe Illustrator 22.0.1, SVG Export Plug-In . SVG Version: 6.00 Build 0)  -->
<svg version="1.1" xmlns="http://www.w3.org/2000/svg" xmlns:xlink="http://www.w3.org/1999/xlink" x="0px" y="0px"
	 viewBox="0 0 1024 1024" style="enable-background:new 0 0 1024 1024;" xml:space="preserve">
<style type="text/css">
	.st0{fill:#261A0A;}
	.st1{fill:#281B0B;}
	.st2{fill:#2C1E0D;}
	.st3{fill:#43220E;}
	.st4{fill:#6F452D;}
	.st5{fill:#855335;}
	.st6{fill:#986244;}
	.st7{fill:#99684B;}
	.st8{fill:#8C5A3C;}
	.st9{fill:#2E1E0E;}
	.st10{fill:#A97C65;}
	.st11{fill:#492512;}
	.st12{fill:#B4856F;}
	.st13{fill:#FDFDFD;}
	.st14{fill:#B88972;}
	.st15{fill:#543E87;}
</style>
<g id="Layer_2">
	<polygon class="st0" points="987.9,860.6 439,1023.8 35.2,786.6 36,171.7 593.5,0 989.1,245.9 	"/>
</g>
<g id="Layer_1">
	<path class="st1" d="M30.9,712.8c-0.4-175.2-1.1-350.4-0.6-525.6c0-8.6,8.7-22.6,16.1-24.9c75.4-22.8,151.3-43.7,227.1-65.1
		c5.2,13.2,10.4,26.3,15.6,39.5c-13.8,3.4-28.2,5.5-41.2,11.1c-3.5,1.5-5.7,18.1-3.3,19.6c27.3,17.2,4.5,19.8-6.8,26.4
		c-8.7,5.1-16.8,11.1-25.2,16.6c8.5,7.7,16.2,16.8,25.8,22.9c18.7,11.9,38.5,22.1,57.8,33.1c-10.2,18.1-36.9,30-21.6,57.7
		c0,16.8,0,33.6,0,50.4c-17.9,1.5-40.8-6.6-43.2,23.8c-1.9,23.7-6.9,47.4-6.7,71.1c0.2,29.9-14.3,31.9-36.6,23.6
		c-9-3.4-17.3-8.3-26-12.4c-20.2-9.4-30-6-32.2,19.3c-3.7,43.3,28.2,53.8,56.8,68.5c23.1,11.9,39.3,12.9,37.9-21
		c-0.6-13.8-0.7-34.2,22.6-22.5c25.2,12.7,25.4-2.4,27.6-19.5c4.4-34.1,9.5-68.1,14.3-102.2c9.6,4.8,19.2,9.6,28.8,14.4
		c2.4,12.5,5.6,24.9,7.1,37.6c3.7,31.9,18,54.8,50.6,63.4c14.4,12,28.8,24,43.2,36c-0.3,20.1-0.7,40.3-1,60.4
		c-17.3-5-35.7-7.9-51.8-15.5c-22.6-10.7-32.5-7.3-34.3,19.1c-0.7,10.2-9,19.8-13.8,29.6c-42.6-17.2-42.5-17.2-43.2,32.6
		c-0.1,5.9-0.6,11.8-0.9,17.7c-26.7-12.1-48.7-17.6-43.6,25.7c0.6,5.4-9.1,12-14.1,18.1c-9.3-5.2-18.5-10.5-27.8-15.7
		c-48.9-22.6-48.9-22.6-59.3,29c-0.6,3.1-4.2,5.6-6.4,8.4C92,747.1,61.4,730,30.9,712.8z"/>
	<path class="st2" d="M744.1,93.1c69,39.9,136.8,81.9,207.4,118.7c34.1,17.8,45.6,36.8,44.8,77c-0.7,35.6-1.6,71.5-2.1,107.3
		c-23.9,7.9-47.9,15.8-71.8,23.7c-23.6,4.4-47.3,8.8-70.9,13.1c-2.5-24.3-4.9-48.6-7.4-72.9c12.8-42,14.1-81-28.8-108.1
		c30.3-33.9,30.3-33.9-13.6-61.4c-9-5.6-18.4-10.6-27-16.9c-29.9-21.7-59.4-43.9-89.1-65.8C705.1,103,724.6,98,744.1,93.1z"/>
	<path class="st3" d="M853.3,903.8c-94.4,27.9-188.7,55.7-283.1,83.6c-0.7-24.4-1.3-48.8-2-73.2c-1.1-26.2-2.3-52.5-3.4-78.7
		c1.8-2.4,3.6-4.7,5.4-7.1c21.6-4.7,43.2-9.4,64.8-14.1c0.9,72.7,0.9,72.7,70.1,54.4c1.2-0.3,2.2-0.9,3.4-1.2
		c69.2-18.2,69.2-18.2,71.6-89.5c2.1-2,4.2-3.9,6.2-5.9c0.4-1.5,0.6-3.1,0.4-4.7c21.4-5.4,42.8-10.9,64.3-16.3
		C851.8,802,852.6,852.9,853.3,903.8z"/>
	<path class="st0" d="M744.1,93.1c-19.5,4.9-39.1,9.9-58.6,14.8c-19.2,4.8-38.4,9.6-57.6,14.4c-9.9,4-20.3,7-29.5,12.2
		c-60.2,34.6-178.1-8.4-202.8-74.3c61.5-19.5,123-39.1,184.7-58.1c7.4-2.3,17.9-3.4,24,0.1"/>
	<path class="st4" d="M568.3,914.2c0.7,24.4,1.3,48.8,2,73.2c-43.6,12.8-86.6,30.3-131.2,36.3c-19.8,2.7-42.7-17.7-64.3-27.6
		c0.2-29.4,0.5-58.8,0.7-88.2c0-19.3,0.1-38.5,0.1-57.8c16.7,7.3,33.5,14.6,50.2,21.9c0,15.4,0.9,30.9-0.1,46.3
		c-1.6,26.4,2.5,37.2,33.6,24.9C494,929.4,531.8,923.5,568.3,914.2z"/>
	<path class="st5" d="M994.6,634.2c0.3,63.3-0.9,126.6,1.6,189.9c1.2,29.4-5.8,44.1-37,50.6c-11.5,2.4-23,5.8-34.5,8.9
		c-2.8-19.5-8.1-39-7.9-58.4c0.3-32.6,4-65.2,6.3-97.7c-0.2-26.9-0.5-53.9-0.7-80.8c-0.3-1.9,0.1-3.7,1.2-5.3
		C947.3,639,971,636.6,994.6,634.2z"/>
	<path class="st6" d="M324.4,967.6c-21.3-12.8-42.7-25.6-64-38.4c4.8-48,9.5-95.9,14.3-143.9c4.6,1.1,9.5,1.6,13.7,3.5
		c36.8,16,35.8,16.1,37.1-25.7c1.1-33.8,5-67.5,7.6-101.2c15,9.8,30,19.5,45,29.3c-0.7,23.9-1.4,47.9-2.1,71.8
		c-0.1,24.3-0.3,48.5-0.4,72.8c-43.3-18.3-43.3-18.3-43.4,32.5c0,8.4-0.1,16.8-0.1,25.1C329.6,918.1,327,942.9,324.4,967.6z"/>
	<path class="st2" d="M395.6,60.2c24.7,65.9,142.6,108.9,202.8,74.3c9.1-5.2,19.6-8.2,29.5-12.2c2.3,21.3,16.3,46.2-18.3,56
		c-2.4,0.7-2.3,10.5-3.3,16.1c-18.8-2.4-39.2-10.7-56.1-6.1c-33.1,9.1-58.6,1.1-86.5-15.9c-22.1-13.5-48.9-19.3-73.6-28.4
		c-6.5-25.1-22.8-31.2-46.1-24.1c-18.3,5.6-36.5,11.2-54.8,16.8c-5.2-13.2-10.4-26.3-15.6-39.5C314.2,84.9,354.9,72.5,395.6,60.2z"
		/>
	<path class="st7" d="M993.8,474.3c0.1,26.7,0.1,53.4,0.2,80.1c-23.8,8-47.6,16-71.4,24c-23.7,4.4-47.5,8.9-71.2,13.3
		c-0.1-26.8-0.1-53.6-0.2-80.4c23.6-7,47.2-14,70.9-21.1C946,485,969.9,479.6,993.8,474.3z"/>
	<path class="st8" d="M923.1,727.4c-2.3,32.6-6,65.1-6.3,97.7c-0.2,19.5,5.1,39,7.9,58.4c-23.8,6.7-47.6,13.5-71.3,20.2
		c-0.8-50.9-1.5-101.8-2.3-152.7c0.2-2.9,0.4-5.9,0.6-8.8C875.5,737.3,899.3,732.4,923.1,727.4z"/>
	<path class="st5" d="M30.9,712.8c30.6,17.2,61.2,34.4,91.8,51.5c5.2,4.5,10.4,9,15.6,13.5c-2.6,24.2-5.2,48.4-7.8,72.6
		c-29.3-17.2-59.6-33-87.4-52.4c-8.1-5.6-11.1-20.4-12.3-31.8C29,748.8,30.5,730.4,30.9,712.8z"/>
	<path class="st7" d="M274.7,785.4c-4.8,48-9.5,95.9-14.3,143.9c-12.1-7.3-24.2-14.6-36.2-21.9c0.1-28.5,0.3-57,0.4-85.6
		c-0.1-21.8-0.2-43.6-0.3-65.4c16.8,7.1,33.6,14.3,50.4,21.4C274.6,780.3,274.7,782.8,274.7,785.4z"/>
	<path class="st9" d="M993.8,474.3c-23.9,5.3-47.9,10.6-71.8,15.9c0.1-23.5,0.2-46.9,0.3-70.4c23.9-7.9,47.9-15.8,71.8-23.8
		C994.1,422.2,994,448.3,993.8,474.3z"/>
	<path class="st10" d="M922.7,578.4c23.8-8,47.6-16,71.4-24c0.2,26.6,0.4,53.2,0.6,79.8c-23.7,2.4-47.4,4.7-71,7.1
		C923.3,620.3,923,599.4,922.7,578.4z"/>
	<path class="st8" d="M324.4,967.6c2.6-24.7,5.2-49.5,7.7-74.2c14.5,4.8,28.9,9.7,43.4,14.5c-0.2,29.4-0.5,58.8-0.7,88.2
		C358,986.7,341.2,977.1,324.4,967.6z"/>
	<path class="st6" d="M130.5,850.4c2.6-24.2,5.2-48.4,7.8-72.6c14.2,7.2,28.5,14.3,42.7,21.5c0.1,2.5,0.2,5,0.2,7.5
		c-0.1,24.2-0.2,48.4-0.3,72.6C164.1,869.7,147.3,860.1,130.5,850.4z"/>
	<path class="st5" d="M180.9,879.4c0.1-24.2,0.2-48.4,0.3-72.6c14.4,5,28.9,10,43.3,14.9c-0.1,28.5-0.3,57-0.4,85.6
		C209.7,898,195.3,888.7,180.9,879.4z"/>
	<path class="st2" d="M378.2,691.2c-15-9.8-30-19.5-45-29.3c-5.1-4.5-10.2-9-15.3-13.5c4.8-9.9,13.1-19.5,13.8-29.6
		c1.8-26.4,11.7-29.8,34.3-19.1c16.1,7.6,34.4,10.5,51.8,15.5c0.3-20.1,0.7-40.3,1-60.5c2.4-8.8,6.7-17.6,6.9-26.4
		c0.6-34.1-7.7-71.7,41.2-81.9c3.9-0.8,9.7-13.8,7.8-16.8c-3.5-5.6-12.1-10.9-18.6-11.1c-43-1.1-80.5,37.9-80.5,82.3
		c0,6,0,11.9,0,17.9c-32.5-8.6-46.9-31.5-50.6-63.4c-1.5-12.6-4.7-25-7.1-37.6c3.6,0,7.2,0.2,10.8,0c18.4-1.4,36.7-3,55-4.5
		c-11.8-11.2-23.9-22.1-35.1-33.8c-5.7-6-8.2-15.7-14.6-20c-19.1-12.8-39.4-23.7-59.3-35.3c-15.3-27.6,11.4-39.6,21.6-57.7
		c10.8,4.1,21.4,9.5,32.5,12.1c14.5,3.4,30.4,8.6,44.2,5.7c18-3.6,25-20.3,5.5-29.5c-40.3-18.9-55.6-39.6-17.3-74.8
		c17,10.7,36,19.2,50.3,32.6c16.1,15.1,75.6,21.6,17.2,59.6c-1.8,1.2-0.2,7-1.3,10.2c-3.4,9.7-4.7,22-11.5,28.1
		c-16.2,14.5-10.8,22.1,3.6,33.3c45.8,35.6,98.4,12.7,147.5,17.4c19,1.8,39.1-8.8,58.7-13.7c4.4,18.8,8.9,37.6,13.3,56.4
		c1.1,4.7,2.2,9.3,3.3,14c-2.4,25.9-4.8,51.8-7.3,77.8c-21.6,8.1-43.2,16.2-64.8,24.3c-73.4,16.9-73.4,16.9-73,91.2
		c0,2.4,0.1,4.8,0.2,7.2c-69.8,24.4-69.8,24.4-73.6,87.8C408.7,701,393.4,696.1,378.2,691.2z"/>
	<path class="st9" d="M361.2,179.9c-38.2,35.2-23,56,17.3,74.8c19.5,9.2,12.5,25.8-5.5,29.5c-13.8,2.8-29.6-2.4-44.2-5.7
		c-11.2-2.6-21.7-7.9-32.5-12.1c-19.3-10.9-39.1-21.1-57.8-33.1c-9.6-6.1-17.3-15.2-25.8-22.9c8.4-5.6,16.5-11.6,25.2-16.6
		c11.3-6.6,34.1-9.2,6.8-26.4c-2.4-1.5-0.2-18.1,3.3-19.6c12.9-5.5,27.3-7.7,41.2-11.1c18.3-5.6,36.5-11.2,54.8-16.8
		c23.3-7.2,39.6-1,46.1,24.1C383.2,158.1,344.8,147.1,361.2,179.9z"/>
	<path class="st2" d="M289.1,403.4c-4.8,34.1-9.9,68.1-14.3,102.2c-2.2,17.1-2.4,32.2-27.6,19.5c-23.2-11.8-23.2,8.6-22.6,22.5
		c1.4,33.9-14.8,32.9-37.9,21c-28.6-14.7-60.5-25.2-56.8-68.5c2.2-25.4,12-28.7,32.2-19.3c8.7,4,17.1,9,26,12.4
		c22.3,8.3,36.8,6.3,36.6-23.6c-0.2-23.7,4.9-47.4,6.7-71.1c2.4-30.4,25.3-22.3,43.2-23.8C279.5,384.1,284.3,393.7,289.1,403.4z"/>
	<path class="st5" d="M317.9,648.4c5.1,4.5,10.2,9,15.3,13.5c-2.7,33.7-6.6,67.4-7.6,101.2c-1.3,41.8-0.3,41.8-37.1,25.7
		c-4.3-1.9-9.1-2.4-13.7-3.5c0-2.6-0.1-5.1-0.1-7.7c-0.3-26.3-0.6-52.6-0.9-78.9c0.3-5.9,0.8-11.8,0.9-17.7
		C275.4,631.3,275.3,631.3,317.9,648.4z"/>
	<path class="st9" d="M375.6,518.7c0-6,0-11.9,0-17.9c0-44.4,37.5-83.3,80.5-82.3c6.6,0.2,15.1,5.5,18.6,11.1c1.9,3-3.9,16-7.8,16.8
		c-48.9,10.3-40.6,47.8-41.2,81.9c-0.2,8.8-4.5,17.6-6.9,26.4C404.4,542.7,390,530.7,375.6,518.7z"/>
	<path class="st9" d="M289.1,403.4c-4.8-9.6-9.6-19.2-14.4-28.8c0-16.8,0-33.6,0-50.4c19.8,11.6,40.2,22.6,59.3,35.3
		c6.4,4.3,8.9,14.1,14.6,20c11.2,11.8,23.4,22.6,35.1,33.8c-18.3,1.5-36.7,3-55,4.5c-3.6,0.3-7.2,0-10.8,0
		C308.3,413,298.7,408.2,289.1,403.4z"/>
	<path class="st9" d="M181,799.3c-14.2-7.1-28.5-14.3-42.7-21.4c-5.2-4.5-10.4-9-15.6-13.5c2.2-2.8,5.7-5.3,6.4-8.4
		c10.4-51.6,10.3-51.6,59.3-29C185.8,751,183.4,775.2,181,799.3z"/>
	<path class="st2" d="M273.7,698.8c0.3,26.3,0.6,52.6,0.9,78.9c-16.8-7.1-33.6-14.3-50.4-21.4c-2.7-4.6-5.4-9.1-8.2-13.7
		c4.9-6.1,14.7-12.7,14.1-18.1C225.1,681.2,247.1,686.6,273.7,698.8z"/>
	<path class="st4" d="M216.1,742.6c2.7,4.6,5.4,9.1,8.2,13.7c0.1,21.8,0.2,43.6,0.3,65.4c-14.4-5-28.9-9.9-43.3-14.9
		c-0.1-2.5-0.2-5-0.2-7.5c2.4-24.1,4.9-48.2,7.3-72.3C197.5,732.2,206.8,737.4,216.1,742.6z"/>
	<path class="st0" d="M361.2,179.9c-16.4-32.8,22-21.8,28.8-36c24.7,9.2,51.5,15,73.6,28.4c27.9,17,53.4,25.1,86.5,15.9
		c16.9-4.7,37.3,3.6,56.1,6.1c19,11.5,14.9,17.9-3.9,24.3c-8.8,3-15.8,11.4-23.6,17.3c9.9,7.5,19,19.5,29.9,21.4
		c13.1,2.3,28.5-2,41.6-6.8c54.2-20,107.8-39.5,161.5,1c0.8,0.6,2.3,0.3,3.5,0.4c42.9,27.2,41.7,66.1,28.8,108.1
		c-45.6,14.4-91.3,28.8-136.9,43.2c-21.6,4.8-43.2,9.6-64.8,14.4c-1.1-4.7-2.2-9.3-3.3-14c-4.4-18.8-8.9-37.6-13.3-56.4
		c-19.6,4.9-39.8,15.5-58.7,13.7c-49.2-4.7-101.7,18.3-147.5-17.4c-14.4-11.2-19.8-18.8-3.6-33.3c6.8-6.1,8.2-18.4,11.5-28.1
		c1.1-3.2-0.5-9,1.3-10.2c58.4-38-1.1-44.4-17.2-59.6C397.2,199.1,378.2,190.6,361.2,179.9z M525.5,333.4c14.7-4,26.7-5.8,37.3-10.6
		c7.9-3.6,13.9-11.2,20.8-17c-7.6-6-15.1-16.9-22.7-17c-21.8-0.2-43.8,3.1-65.2,7.5c-2.8,0.6-6.4,20.4-3.3,22.6
		C502.4,326.1,515.4,329.3,525.5,333.4z"/>
	<path class="st9" d="M815.3,252c-1.2-0.1-2.7,0.2-3.5-0.4c-53.6-40.5-107.3-21.1-161.5-1c-13.1,4.8-28.5,9.1-41.6,6.8
		c-10.9-1.9-20-13.9-29.9-21.4c7.8-5.9,14.8-14.3,23.6-17.3c18.8-6.5,23-12.9,3.9-24.3c1.1-5.6,0.9-15.4,3.3-16.1
		c34.6-9.8,20.6-34.7,18.3-56c19.2-4.8,38.4-9.6,57.6-14.4c29.7,22,59.2,44.1,89.1,65.8c8.6,6.2,18,11.2,27,16.9
		C845.6,218.1,845.5,218.1,815.3,252z"/>
	<path class="st11" d="M707.1,403.3c45.7-14.4,91.3-28.8,137-43.2c2.5,24.3,4.9,48.6,7.4,72.9c-0.2,1.9-0.4,3.9-0.4,5.8
		c-47.8,12.6-95.7,25.2-143.5,37.8C707.5,452.2,707.3,427.8,707.1,403.3z"/>
	<path class="st10" d="M851.1,438.8c0-1.9,0.1-3.9,0.4-5.8c23.6-4.4,47.3-8.8,70.9-13.1c-0.1,23.5-0.2,46.9-0.3,70.4
		c-23.6,7-47.2,14-70.9,21.1C851.2,487.2,851.2,463,851.1,438.8z"/>
	<path class="st4" d="M786.8,767.4c0.2,1.6,0.1,3.1-0.4,4.7c-2-0.4-4.1-0.7-6.1-0.9c-48,11.8-96,23.7-144,35.5
		c-0.4-23.9-0.8-47.8-1.2-71.7c24.1-7.7,48.3-15.5,72.4-23.2c23.9-6.7,47.8-13.5,71.7-20.2C781.8,716.9,784.3,742.1,786.8,767.4z"/>
	<path class="st8" d="M568.3,914.2c-36.4,9.3-74.2,15.3-108.9,29c-31,12.3-35.2,1.5-33.6-24.9c0.9-15.4,0.1-30.9,0.1-46.3
		c0,0,0.3-0.2,0.3-0.2c24-7.2,48-14.3,71.9-21.5c22.3-4.9,44.5-9.9,66.8-14.8C566,861.7,567.1,888,568.3,914.2z"/>
	<path class="st5" d="M636.3,806.7c48-11.8,96-23.7,144-35.5c-0.6,2.3-0.7,4.5-0.1,6.8c-2.4,71.3-2.4,71.3-71.6,89.5
		c-1.2,0.3-2.2,0.9-3.4,1.2c-69.2,18.2-69.2,18.2-70.1-54.4C635.5,811.8,635.9,809.2,636.3,806.7z"/>
	<path class="st10" d="M564.9,835.5c-22.3,4.9-44.5,9.9-66.8,14.8c0-23.9,0-47.8,0-71.7c0-2.6,0.1-5.1,0.1-7.7
		c23.6-5.5,47.2-11,70.8-16.5c0.4,24.6,0.8,49.3,1.2,73.9C568.4,830.8,566.6,833.1,564.9,835.5z"/>
	<path class="st12" d="M786.8,767.4c-2.5-25.3-5-50.6-7.6-75.8c0,0,0.4-0.4,0.4-0.4c23.2-6,46.4-12,69.6-18
		c0.8,23,1.6,46.1,2.4,69.1c-0.2,2.9-0.4,5.9-0.6,8.8C829.6,756.5,808.2,762,786.8,767.4z"/>
	<path class="st12" d="M570.2,828.4c-0.4-24.6-0.8-49.3-1.2-73.9c-0.6-1.3-0.2-2.4,1-3.2c21.7-5.4,43.4-10.8,65.1-16.2l0,0
		c0.4,23.9,0.8,47.8,1.2,71.7c-0.4,2.5-0.8,5.1-1.2,7.6C613.5,819,591.8,823.7,570.2,828.4z"/>
	<path class="st11" d="M780.2,778c-0.6-2.3-0.5-4.5,0.1-6.8c2.1,0.2,4.1,0.5,6.2,0.9C784.3,774.1,782.3,776,780.2,778z"/>
	<path class="st8" d="M375.6,835.8c0.1-24.3,0.3-48.5,0.4-72.8c16.3,9.5,32.6,19.1,48.9,28.6c0.4,26.7,0.8,53.5,1.2,80.2
		c0,0-0.3,0.2-0.3,0.2c-16.7-7.3-33.5-14.6-50.2-21.9C375.6,845.3,375.6,840.6,375.6,835.8z"/>
	<path class="st5" d="M375.6,835.8c0,4.8,0,9.6,0,14.4c0,19.3-0.1,38.5-0.1,57.8c-14.5-4.8-28.9-9.7-43.4-14.5
		c0-8.4,0.1-16.8,0.1-25.1C332.3,817.4,332.3,817.4,375.6,835.8z"/>
	<path class="st7" d="M851.6,742.3c-0.8-23-1.6-46.1-2.4-69.1c0.3-1.6,0.6-3.3,1-4.9c24.1-7.2,48.1-14.4,72.2-21.6
		c0.2,26.9,0.5,53.9,0.7,80.8C899.3,732.4,875.5,737.3,851.6,742.3z"/>
	<path class="st13" d="M922.4,646.6c-24.1,7.2-48.1,14.4-72.2,21.6c-0.8-23.3-1.5-46.6-2.3-69.9c1.2-2.2,2.3-4.4,3.5-6.7
		c23.7-4.4,47.5-8.9,71.2-13.3c0.3,21,0.6,41.9,1,62.9C922.5,642.9,922.1,644.7,922.4,646.6z"/>
	<path class="st11" d="M424.9,791.6c-16.3-9.5-32.6-19-48.9-28.6c0.7-23.9,1.4-47.9,2.1-71.8c15.3,4.9,30.5,9.8,45.7,14.7
		c1,2.5,2,5,2.9,7.5c-0.4,26.4-0.8,52.7-1.2,79.1C425.6,792.5,424.9,791.6,424.9,791.6z"/>
	<path class="st14" d="M851.4,591.7c-1.2,2.2-2.3,4.4-3.5,6.7c-22.9,4.6-45.9,9.3-68.8,13.9l-0.2-0.1c0.1-8.3,0.3-16.7,0.3-25
		c0.1-52.4,0-52.5-51.5-38.4c-50.2,13.8-100.2,28-150.3,42c-2.4-23.7-4.8-47.4-7.2-71c21.6-8.1,43.2-16.2,64.8-24.3
		c24.2-6.3,48.4-12.6,72.6-18.9c47.8-12.6,95.7-25.2,143.5-37.8c0,24.2,0.1,48.3,0.1,72.5C851.3,538.1,851.3,564.9,851.4,591.7z"/>
	<path class="st12" d="M570.3,519.8c2.4,23.7,4.8,47.4,7.2,71c-3.3,29.4-6.7,58.8-10,88.2c-23.2,6.3-46.4,12.6-69.6,19
		c-0.1-26.6-0.2-53.2-0.3-79.8c-0.1-2.4-0.2-4.8-0.2-7.2C496.8,536.7,496.8,536.7,570.3,519.8z"/>
	<path class="st10" d="M497.5,618.1c0.1,26.6,0.2,53.2,0.3,79.8l-0.5,0.5c-23.5,5-47,9.9-70.5,14.9c-1-2.5-2-5-2.9-7.5
		C427.7,642.5,427.7,642.5,497.5,618.1z"/>
	<path class="st9" d="M707.6,476.6c-24.2,6.3-48.4,12.6-72.6,18.9c2.4-25.9,4.8-51.8,7.3-77.8c21.6-4.8,43.2-9.6,64.8-14.4
		C707.3,427.8,707.5,452.2,707.6,476.6z"/>
	<path class="st2" d="M525.5,333.4c-10.1-4.1-23.1-7.3-33.2-14.6c-3-2.2,0.5-22,3.3-22.6c21.4-4.4,43.4-7.7,65.2-7.5
		c7.6,0.1,15.1,11,22.7,17c-6.9,5.8-12.9,13.4-20.8,17C552.2,327.6,540.2,329.4,525.5,333.4z"/>
	<path class="st10" d="M567.5,679c3.3-29.4,6.7-58.8,10-88.2c50.1-14,100.1-28.3,150.3-42c51.6-14.2,51.6-14,51.5,38.4
		c0,8.3-0.2,16.7-0.3,25c-72.7,26.8-72.7,26.8-71.5,99.6c-24.1,7.7-48.3,15.5-72.4,23.2c0,0,0,0,0,0c1.1-84.3,1.1-84.3-66.3-56.7
		L567.5,679z"/>
	<path class="st14" d="M707.5,711.8c-1.2-72.8-1.2-72.8,71.5-99.6c0,0,0.2,0.1,0.2,0.1c0.2,26.3,0.3,52.6,0.5,78.9
		c0,0-0.4,0.4-0.4,0.4C755.3,698.3,731.4,705.1,707.5,711.8z"/>
	<path class="st6" d="M426.1,871.8c-0.4-26.7-0.8-53.4-1.2-80.2c0,0,0.7,0.9,0.7,0.9c24.1-4.6,48.3-9.2,72.4-13.9
		c0,23.9,0,47.8,0,71.7C474.1,857.4,450.1,864.6,426.1,871.8z"/>
	<path class="st13" d="M497.8,698c23.2-6.3,46.4-12.6,69.6-19c0,0,1.3-0.6,1.3-0.6c0.4,24.3,0.8,48.6,1.2,72.8
		c-1.2,0.8-1.6,1.8-1,3.2c-23.6,5.5-47.2,11-70.8,16.5c-0.3-24.1-0.5-48.3-0.8-72.4L497.8,698z"/>
	<path class="st12" d="M497.4,698.5c0.3,24.1,0.5,48.3,0.8,72.4c0,2.6-0.1,5.1-0.1,7.7c-24.1,4.6-48.3,9.3-72.4,13.9
		c0.4-26.4,0.8-52.7,1.2-79.1C450.4,708.4,473.9,703.5,497.4,698.5z"/>
	<path class="st15" d="M779.6,691.1c-0.2-26.3-0.3-52.6-0.5-78.9c22.9-4.6,45.9-9.2,68.8-13.9c0.8,23.3,1.5,46.6,2.3,69.9
		c-0.4,1.6-0.7,3.3-1,4.9C826,679.2,802.8,685.1,779.6,691.1z"/>
	<path class="st15" d="M570,751.3c-0.4-24.3-0.8-48.6-1.2-72.8c67.4-27.6,67.4-27.6,66.3,56.7C613.4,740.5,591.7,745.9,570,751.3z"
		/>
</g>
</svg>
